<?xml version="1.0" encoding="iso-8859-1"?>
<!-- Generator: Adobe Illustrator 18.1.1, SVG Export Plug-In . SVG Version: 6.00 Build 0)  -->
<svg version="1.1" xmlns="http://www.w3.org/2000/svg" xmlns:xlink="http://www.w3.org/1999/xlink" x="0px" y="0px"
	 viewBox="0 0 358.216 339.009" style="enable-background:new 0 0 358.216 339.009;" xml:space="preserve">
<g id="snow">
	<g>
		<g>
			<path style="fill:#31535B;" d="M324.228,105.027c0.137-1.626,0.213-3.24,0.213-4.854c0-30.453-24.782-55.223-55.231-55.223
				c-10.423,0-20.406,2.875-29.036,8.265c-5.379-31.444-34.188-54.973-67.918-53.111c-32.09,1.592-57.541,25.082-61.688,55.216
				c-5.804-2.055-11.791-3.111-17.884-3.111c-30.449,0-55.231,24.777-55.231,55.234c0,0.664,0.015,1.31,0.076,2.013
				C22.107,113.664-0.046,122.576,0,154.126c0.03,23.441,19.509,43.566,46.053,44.808l8.129-12.532
				c-0.972,0.019-2.066,0.057-2.811,0.087l-1.976,0.049c-20.132,0-36.527-14.56-36.542-32.42
				c-0.031-21.317,11.608-28.227,33.078-33.556l4.831-1.843l0.137-4.881l-0.228-2.609c-0.183-1.254-0.365-2.507-0.365-3.787
				c0-23.361,19.023-42.373,42.377-42.373c7.065,0,13.994,1.88,20.573,5.569l9.77,5.47l-0.197-11.183
				c-0.471-27.726,21.515-50.57,50.064-51.987l2.781-0.061c28.079,0,51.113,21.26,52.466,48.466c0.045,0.96-0.016,1.937-0.137,4.414
				l-0.577,16.523L239.02,70.49c8.038-8.186,18.764-12.687,30.19-12.687c23.369,0,42.392,19.008,42.392,42.369
				c0,2.917-0.319,5.724-0.866,8.475l-1.307,6.453l6.488,1.147c16.562,2.895,28.641,15.711,29.4,31.167
				c0.775,15.529-9.906,33.158-26.149,38.274l4.3,11.954c20.466-6.799,35.827-27.96,34.688-50.851
				C357.199,127.293,343.555,110.845,324.228,105.027z"/>
		</g>
		<g>
			<path style="fill:#31535B;" d="M72.674,224.657h3.722v-3.662h-3.722V224.657z M87.184,229.604l2.629,2.605l2.644-2.605
				l-2.644-2.637L87.184,229.604z M67.462,204.871l-2.613,2.651l2.644,2.583l2.598-2.583L67.462,204.871z M103.274,224.657h3.723
				v-3.662h-3.723V224.657z M76.184,190.061h-3.692v3.696h3.692V190.061z M107.271,190.061h-3.723v3.696h3.723V190.061z
				 M92.35,184.982l-2.644-2.622l-2.629,2.622l2.629,2.621L92.35,184.982z M110.705,213.042l-2.37-5.687l2.37-5.398l-4.361,4.539
				h-7.096l2.568-3.973l-4.559-0.862l5.014-5.094h6.184l-5.652-2.055l-2.142-5.656v6.271l-4.923,5.128l-0.745-4.874l-4.102,2.777
				v-6.905l4.482-4.665l-5.333,2.659l-5.591-2.447l4.482,4.453v6.905l-4.163-2.492l-0.685,4.589l-5.029-5.128v-6.271l-1.96,5.656
				l-5.819,2.241h6.26l5.014,4.908l-5.151,1.129l3.175,3.707h-7.111l-4.452-4.539l2.143,5.565l-2.143,5.52l4.452-4.669h7.111
				l-3.175,4.128l5.151,0.821l-5.014,5.002h-6.26l5.819,2.025l1.884,5.584l0.076-6.162l4.832-4.835l0.882,4.98l4.163-3.092v7.118
				l-4.482,4.361l5.455-2.401l5.348,2.401l-4.36-4.361v-7.118l4.102,2.799l0.745-4.873l5.014,5.021l0.106,6.162l1.808-5.458
				l5.789-2.15h-6.184l-5.014-4.824l4.847-1.409l-2.856-3.718h7.096L110.705,213.042z M84.449,203.667l3.054,2.83h-4.087
				L84.449,203.667z M84.662,211.457l-1.246-3.083h4.087L84.662,211.457z M88.931,213.98l-2.765-1.136l2.765-3.024V213.98z
				 M88.931,205.069l-2.765-2.837l2.765-1.223V205.069z M95.252,203.667l1.064,2.83h-4.087L95.252,203.667z M90.998,201.008
				l2.933,1.223l-2.933,2.837V201.008z M90.998,214.079v-4.258l2.933,2.83L90.998,214.079z M95.085,211.457l-2.856-3.083h4.361
				L95.085,211.457z M111.875,204.795l-2.629,2.602l2.629,2.621l2.644-2.621L111.875,204.795z"/>
		</g>
		<g>
			<path style="fill:#31535B;" d="M221.957,204.902h4.831v-4.764h-4.831V204.902z M240.782,211.31l3.404,3.354l3.434-3.354
				l-3.434-3.434L240.782,211.31z M215.195,179.239l-3.388,3.434l3.434,3.339l3.358-3.339L215.195,179.239z M261.644,204.902h4.831
				v-4.764h-4.831V204.902z M226.514,160.018h-4.786v4.82h4.786V160.018z M266.825,160.018h-4.817v4.82h4.817V160.018z
				 M247.467,153.431l-3.419-3.384l-3.403,3.384l3.403,3.415L247.467,153.431z M271.276,189.837l-3.084-7.396l3.084-6.977
				l-5.652,5.898h-9.207l3.328-5.184l-5.911-1.105l6.518-6.602h8.008l-7.339-2.67l-2.781-7.327v8.117l-6.366,6.644l-0.973-6.309
				l-5.302,3.62v-8.972l5.788-6.047l-6.913,3.457l-7.233-3.179l5.79,5.77v8.972l-5.379-3.259l-0.896,5.949l-6.518-6.644v-8.117
				l-2.538,7.327l-7.551,2.914h8.114l6.504,6.359l-6.67,1.47l4.102,4.82h-9.208l-5.789-5.898l2.795,7.21l-2.795,7.164l5.789-6.059
				h9.208l-4.102,5.352l6.67,1.056l-6.504,6.496h-8.114l7.551,2.613l2.431,7.251l0.107-8.003l6.275-6.271l1.139,6.484l5.379-4.007
				v9.215l-5.79,5.664l7.05-3.111l6.959,3.111l-5.652-5.664v-9.215l5.302,3.608l0.973-6.29l6.488,6.476l0.137,8.003l2.355-7.065
				l7.506-2.799h-8.008l-6.518-6.241l6.275-1.846l-3.692-4.817h9.207L271.276,189.837z M237.241,177.674l3.936,3.688h-5.288
				L237.241,177.674z M237.5,187.751l-1.611-3.974h5.288L237.5,187.751z M243.031,191.059l-3.571-1.477l3.571-3.936V191.059z
				 M243.031,179.486l-3.571-3.688l3.571-1.576V179.486z M251.251,177.674l1.368,3.688H247.3L251.251,177.674z M245.735,174.221
				l3.783,1.576l-3.783,3.688V174.221z M245.735,191.174v-5.527l3.783,3.689L245.735,191.174z M251.023,187.751l-3.722-3.974h5.667
				L251.023,187.751z M272.796,179.124l-3.419,3.385l3.419,3.392l3.419-3.392L272.796,179.124z"/>
		</g>
		<g>
			<path style="fill:#31535B;" d="M106.283,329.239h4.847v-4.771h-4.847V329.239z M125.108,335.636l3.419,3.373l3.418-3.373
				l-3.418-3.419L125.108,335.636z M99.522,303.561l-3.388,3.434l3.418,3.35l3.389-3.35L99.522,303.561z M145.97,329.239h4.817
				v-4.771h-4.817V329.239z M110.841,284.341h-4.786v4.824h4.786V284.341z M151.151,284.341h-4.817v4.824h4.817V284.341z
				 M131.794,277.761l-3.419-3.38l-3.403,3.38l3.403,3.404L131.794,277.761z M155.619,314.159l-3.1-7.392l3.1-6.959l-5.667,5.88
				h-9.208l3.328-5.181l-5.91-1.101l6.518-6.617h7.992l-7.339-2.659l-2.766-7.339v8.129l-6.366,6.647l-0.973-6.32l-5.317,3.624
				v-8.964l5.804-6.047l-6.913,3.449l-7.232-3.176l5.789,5.774v8.964l-5.379-3.267l-0.896,5.963l-6.518-6.647v-8.129l-2.538,7.339
				l-7.552,2.918h8.129l6.503,6.359l-6.686,1.466l4.103,4.816h-9.208l-5.788-5.88l2.796,7.187l-2.796,7.164l5.788-6.055h9.208
				l-4.103,5.372l6.686,1.04l-6.503,6.503h-8.129l7.552,2.613l2.431,7.248l0.106-8.015l6.275-6.26l1.14,6.48l5.379-4.011v9.23
				l-5.789,5.645l7.065-3.1l6.944,3.1l-5.667-5.645v-9.23l5.317,3.616l0.973-6.306l6.488,6.48l0.136,8.015l2.355-7.081l7.491-2.78
				h-7.992l-6.518-6.252l6.275-1.846l-3.692-4.817h9.208L155.619,314.159z M121.568,301.996l3.935,3.692h-5.287L121.568,301.996z
				 M121.827,312.085l-1.61-3.981h5.287L121.827,312.085z M127.357,315.397l-3.57-1.482l3.57-3.935V315.397z M127.357,303.804
				l-3.57-3.677l3.57-1.573V303.804z M135.578,301.996l1.367,3.692h-5.318L135.578,301.996z M130.062,298.554l3.783,1.573
				l-3.783,3.677V298.554z M130.062,315.504v-5.523l3.783,3.684L130.062,315.504z M135.335,312.085l-3.707-3.981h5.667
				L135.335,312.085z M157.123,303.455l-3.419,3.373l3.419,3.403l3.418-3.403L157.123,303.455z"/>
		</g>
		<g>
			<path style="fill:#31535B;" d="M182.33,267.612h3.358v-3.328h-3.358V267.612z M195.412,272.018l2.37,2.363l2.371-2.363
				l-2.371-2.363L195.412,272.018z M177.635,249.759l-2.355,2.401l2.37,2.301l2.34-2.301L177.635,249.759z M209.907,267.612h3.357
				v-3.328h-3.357V267.612z M185.505,236.433h-3.343v3.335h3.343V236.433z M213.508,236.433h-3.357v3.335h3.357V236.433z
				 M200.046,231.845l-2.37-2.355l-2.355,2.355l2.355,2.355L200.046,231.845z M216.592,257.128l-2.142-5.136l2.142-4.839
				l-3.92,4.072h-6.396l2.309-3.578l-4.102-0.775l4.528-4.589h5.561l-5.105-1.854l-1.93-5.082v5.645l-4.422,4.604l-0.684-4.376
				l-3.677,2.492v-6.214l4.026-4.194l-4.801,2.386l-5.03-2.203l4.011,4.011v6.214l-3.737-2.249l-0.608,4.132l-4.528-4.604v-5.645
				l-1.763,5.082l-5.257,2.021h5.652l4.513,4.421l-4.635,1.019l2.841,3.335h-6.396l-4.011-4.072l1.93,5.007l-1.93,4.968l4.011-4.201
				h6.396l-2.841,3.707l4.635,0.745l-4.513,4.505h-5.652l5.257,1.808l1.686,5.044l0.076-5.561l4.346-4.346l0.79,4.498l3.737-2.796
				v6.412l-4.011,3.92l4.908-2.143l4.816,2.143l-3.92-3.92v-6.412l3.677,2.522l0.684-4.376l4.497,4.498l0.091,5.561l1.641-4.908
				l5.227-1.944h-5.561l-4.528-4.338l4.361-1.284l-2.568-3.335h6.396L216.592,257.128z M192.95,248.679l2.735,2.545h-3.677
				L192.95,248.679z M193.133,255.677l-1.125-2.75h3.677L193.133,255.677z M196.962,257.963l-2.476-1.018l2.476-2.728V257.963z
				 M196.962,249.926l-2.476-2.545l2.476-1.101V249.926z M202.675,248.679l0.957,2.545h-3.692L202.675,248.679z M198.846,246.279
				l2.628,1.101l-2.628,2.545V246.279z M198.846,258.07v-3.852l2.628,2.561L198.846,258.07z M202.523,255.677l-2.583-2.75h3.935
				L202.523,255.677z M217.656,249.698l-2.37,2.34l2.37,2.371l2.37-2.371L217.656,249.698z"/>
		</g>
		<g>
			<path style="fill:#31535B;" d="M149.313,202.505h2.37v-2.34h-2.37V202.505z M158.521,205.623l1.671,1.664l1.671-1.664
				l-1.671-1.66L158.521,205.623z M146.016,189.962l-1.656,1.675l1.671,1.633l1.641-1.633L146.016,189.962z M168.731,202.505h2.356
				v-2.34h-2.356V202.505z M151.546,180.572h-2.34v2.347h2.34V180.572z M171.253,180.572h-2.355v2.347h2.355V180.572z
				 M161.803,177.343l-1.687-1.652l-1.656,1.652l1.656,1.664L161.803,177.343z M173.441,195.139l-1.504-3.62l1.504-3.407
				l-2.78,2.887h-4.483l1.611-2.534l-2.887-0.547l3.19-3.229h3.92l-3.601-1.31l-1.352-3.563v3.961l-3.115,3.248l-0.471-3.088
				l-2.599,1.759v-4.372l2.841-2.963l-3.388,1.702l-3.54-1.565l2.841,2.826v4.372l-2.644-1.573l-0.425,2.902l-3.19-3.248v-3.961
				l-1.246,3.563l-3.692,1.436h3.981l3.175,3.103l-3.267,0.722l2.006,2.359h-4.498l-2.841-2.887l1.368,3.525l-1.368,3.502
				l2.841-2.966h4.498l-2.006,2.621l3.267,0.52l-3.175,3.18h-3.981l3.692,1.261l1.2,3.552l0.046-3.913l3.069-3.054l0.547,3.16
				l2.644-1.956v4.52l-2.841,2.751l3.449-1.516l3.403,1.516l-2.766-2.751v-4.52l2.599,1.77l0.471-3.092l3.175,3.171l0.076,3.913
				l1.14-3.453l3.677-1.36h-3.92l-3.19-3.054l3.084-0.919l-1.809-2.348h4.483L173.441,195.139z M156.789,189.191l1.93,1.808h-2.583
				L156.789,189.191z M156.925,194.121l-0.79-1.949h2.583L156.925,194.121z M159.63,195.736l-1.747-0.714l1.747-1.919V195.736z
				 M159.63,190.069l-1.747-1.79l1.747-0.771V190.069z M163.641,189.191l0.669,1.808h-2.599L163.641,189.191z M160.937,187.508
				l1.854,0.771l-1.854,1.79V187.508z M160.937,195.793v-2.69l1.854,1.789L160.937,195.793z M163.535,194.121l-1.824-1.949h2.781
				L163.535,194.121z M174.186,189.913l-1.671,1.633l1.671,1.664l1.656-1.664L174.186,189.913z"/>
		</g>
		<g>
			<path style="fill:#31535B;" d="M249.686,272.094h2.689v-2.659h-2.689V272.094z M260.2,275.664l1.899,1.877l1.9-1.877l-1.9-1.915
				L260.2,275.664z M245.902,257.759l-1.884,1.922l1.899,1.854l1.899-1.854L245.902,257.759z M271.823,272.094h2.705v-2.659h-2.705
				V272.094z M252.223,247.038h-2.674v2.674h2.674V247.038z M274.726,247.038h-2.689v2.674h2.689V247.038z M263.907,243.346
				l-1.9-1.876l-1.899,1.876l1.899,1.915L263.907,243.346z M277.217,263.676l-1.732-4.125l1.732-3.897l-3.16,3.29h-5.151l1.869-2.88
				l-3.313-0.623l3.632-3.708h4.482l-4.103-1.474l-1.549-4.087v4.528l-3.54,3.723l-0.547-3.541l-2.963,2.021v-4.999l3.221-3.389
				l-3.844,1.945l-4.042-1.778l3.236,3.222v4.999l-3.008-1.809l-0.501,3.328l-3.646-3.723v-4.528l-1.398,4.087l-4.224,1.618h4.528
				l3.631,3.563l-3.723,0.82l2.279,2.682h-5.136l-3.221-3.29l1.549,4.027l-1.549,3.996l3.221-3.373h5.136l-2.279,2.979l3.723,0.592
				l-3.631,3.608h-4.528l4.224,1.467l1.352,4.057l0.046-4.467l3.51-3.495l0.638,3.616l3.008-2.249v5.151l-3.236,3.153l3.951-1.732
				l3.859,1.732l-3.145-3.153v-5.151l2.963,2.037l0.547-3.548l3.617,3.639l0.075,4.467l1.307-3.958l4.193-1.565h-4.482l-3.632-3.487
				l3.51-1.011l-2.067-2.682h5.151L277.217,263.676z M258.21,256.885l2.203,2.059h-2.963L258.21,256.885z M258.346,262.522
				l-0.896-2.219h2.963L258.346,262.522z M261.446,264.36l-2.006-0.82l2.006-2.204V264.36z M261.446,257.903l-2.006-2.066
				l2.006-0.874V257.903z M266.019,256.885l0.775,2.059h-2.978L266.019,256.885z M262.95,254.962l2.112,0.874l-2.112,2.066V254.962z
				 M262.95,264.436v-3.1l2.112,2.059L262.95,264.436z M265.898,262.522l-2.081-2.219h3.175L265.898,262.522z M278.053,257.69
				l-1.914,1.884l1.914,1.915l1.9-1.915L278.053,257.69z"/>
		</g>
	</g>
</g>
<g id="Layer_1">
</g>
</svg>
