<?xml version="1.0" encoding="iso-8859-1"?>
<!-- Generator: Adobe Illustrator 18.1.1, SVG Export Plug-In . SVG Version: 6.00 Build 0)  -->
<svg version="1.1" xmlns="http://www.w3.org/2000/svg" xmlns:xlink="http://www.w3.org/1999/xlink" x="0px" y="0px"
	 viewBox="0 0 358.21 408.703" style="enable-background:new 0 0 358.21 408.703;" xml:space="preserve">
<g id="thunderstorm">
	<g>
		<g>
			<path style="fill:#31535B;" d="M324.22,105.025c0.16-1.618,0.228-3.232,0.228-4.851c0-30.445-24.781-55.227-55.246-55.227
				c-10.432,0-20.391,2.883-29.035,8.27c-5.35-31.433-34.18-54.961-67.911-53.115c-32.105,1.607-57.524,25.093-61.696,55.227
				c-5.789-2.07-11.798-3.111-17.86-3.111c-30.448,0-55.246,24.771-55.246,55.234c0,0.661,0.015,1.311,0.075,2.006
				C22.101,113.659-0.038,122.578,0,154.132c0.038,23.438,19.509,43.554,46.054,44.816l8.129-12.547
				c-0.973,0.031-2.044,0.057-2.818,0.099l-1.977,0.049c-20.124,0-36.519-14.552-36.541-32.436
				c-0.008-21.302,11.6-28.22,33.093-33.553l4.839-1.835l0.137-4.873l-0.25-2.628c-0.176-1.242-0.342-2.484-0.342-3.772
				c0-23.372,19-42.384,42.376-42.384c7.042,0,13.956,1.876,20.573,5.572l9.754,5.466l-0.197-11.175
				c-0.471-27.737,21.53-50.57,50.08-51.979l2.766-0.076c28.078,0,51.105,21.276,52.457,48.47c0.061,0.968,0,1.934-0.137,4.425
				l-0.577,16.509l11.601-11.787c8.039-8.179,18.78-12.695,30.184-12.695c23.369,0,42.399,19.023,42.399,42.376
				c0,2.917-0.312,5.725-0.866,8.467l-1.314,6.472l6.487,1.128c16.553,2.902,28.641,15.726,29.408,31.186
				c0.783,15.51-9.914,33.15-26.133,38.259l4.291,11.958c20.467-6.799,35.82-27.961,34.674-50.855
				C357.19,127.292,343.555,110.863,324.22,105.025z"/>
		</g>
		<g>
			<path style="fill:#31535B;" d="M71.792,235.645h0.038C55.436,213.694,56.53,175.902,55.724,188
				c-2.035,31.608-14.486,47.645-14.486,47.645l0,0c-1.019,1.967-1.635,4.16-1.635,6.461c0,8.379,7.582,15.164,16.928,15.164
				c9.352,0,16.91-6.784,16.91-15.164C73.44,239.805,72.833,237.613,71.792,235.645z"/>
		</g>
		<g>
			<path style="fill:#31535B;" d="M148.682,193.09L148.682,193.09c-14.114-18.92-13.173-51.504-13.856-41.07
				c-1.77,27.254-12.505,41.07-12.505,41.07l0,0c-0.903,1.702-1.413,3.589-1.413,5.58c0,7.214,6.525,13.067,14.601,13.067
				c8.061,0,14.564-5.854,14.564-13.067C150.072,196.68,149.556,194.792,148.682,193.09z"/>
		</g>
		<g>
			<path style="fill:#31535B;" d="M228.513,247.588h0.014c-10.604-14.169-9.875-38.597-10.393-30.776
				c-1.322,20.425-9.359,30.776-9.359,30.776l0,0c-0.66,1.284-1.056,2.674-1.056,4.186c0,5.397,4.878,9.781,10.933,9.781
				c6.018,0,10.917-4.384,10.917-9.781C229.568,250.262,229.188,248.872,228.513,247.588z"/>
		</g>
		<g>
			<path style="fill:#31535B;" d="M267.896,182.758h0.016c-12.255-16.402-11.434-44.686-12.012-35.626
				c-1.549,23.638-10.848,35.626-10.848,35.626l0,0c-0.768,1.482-1.217,3.115-1.217,4.843c0,6.26,5.645,11.339,12.643,11.339
				c6.981,0,12.641-5.079,12.641-11.339C269.118,185.873,268.678,184.24,267.896,182.758z"/>
		</g>
		<g>
			<polygon style="fill:#31535B;" points="126.939,408.703 128.998,405.52 201.108,294.295 131.05,294.177 190.687,198.948 
				196.46,198.948 156.089,281.836 231.277,282.212 			"/>
		</g>
	</g>
</g>
<g id="Layer_1">
</g>
</svg>
