<?xml version="1.0" encoding="iso-8859-1"?>
<!-- Generator: Adobe Illustrator 18.1.1, SVG Export Plug-In . SVG Version: 6.00 Build 0)  -->
<svg version="1.1" xmlns="http://www.w3.org/2000/svg" xmlns:xlink="http://www.w3.org/1999/xlink" x="0px" y="0px"
	 viewBox="0 0 334.15 113.212" style="enable-background:new 0 0 334.15 113.212;" xml:space="preserve">
<g id="mist">
	<g>
		<g>
			<path style="fill:#31535B;" d="M334.15,28.96c-11.252,0-17.14-6.352-21.872-11.455c-4.452-4.802-7.963-8.602-15.324-8.602
				c-7.354,0-10.879,3.8-15.323,8.616c-4.756,5.089-10.628,11.44-21.879,11.44c-11.245,0-17.109-6.352-21.842-11.455
				c-4.452-4.802-7.97-8.602-15.301-8.602c-7.34,0-10.856,3.8-15.308,8.602c-4.718,5.104-10.599,11.455-21.835,11.455
				c-11.228,0-17.107-6.352-21.841-11.455c-4.452-4.802-7.97-8.602-15.301-8.602c-7.323,0-10.834,3.8-15.263,8.602
				c-4.718,5.104-10.598,11.455-21.811,11.455c-11.222,0-17.086-6.366-21.805-11.455c-4.429-4.802-7.924-8.602-15.232-8.602
				c-7.338,0-10.849,3.8-15.3,8.616c-4.733,5.089-10.583,11.44-21.804,11.44c-11.214,0-17.094-6.352-21.826-11.455
				C10.849,12.703,7.338,8.903,0,8.903V0c11.22,0,17.093,6.352,21.826,11.471c4.429,4.787,7.946,8.586,15.285,8.586
				c7.316,0,10.826-3.799,15.269-8.586C57.107,6.352,62.987,0,74.215,0C85.413,0,91.278,6.352,95.98,11.456
				c4.444,4.802,7.955,8.601,15.271,8.601c7.323,0,10.833-3.799,15.262-8.586C131.232,6.352,137.112,0,148.325,0
				c11.229,0,17.108,6.352,21.841,11.471c4.452,4.787,7.963,8.586,15.301,8.586c7.34,0,10.849-3.799,15.301-8.586
				C205.493,6.352,211.373,0,222.609,0c11.229,0,17.108,6.352,21.841,11.471c4.453,4.787,7.963,8.586,15.302,8.586
				c7.346,0,10.879-3.799,15.33-8.601C279.839,6.352,285.703,0,296.954,0c11.235,0,17.132,6.352,21.856,11.456
				c4.452,4.802,7.985,8.601,15.34,8.601V28.96z"/>
		</g>
		<g>
			<path style="fill:#31535B;" d="M334.15,69.255c-11.252,0-17.14-6.366-21.872-11.471c-4.452-4.816-7.963-8.601-15.324-8.601
				c-7.354,0-10.879,3.784-15.323,8.601c-4.741,5.12-10.628,11.471-21.879,11.471c-11.245,0-17.109-6.351-21.842-11.471
				c-4.452-4.816-7.97-8.601-15.301-8.601c-7.34,0-10.856,3.784-15.308,8.601c-4.718,5.12-10.599,11.471-21.835,11.471
				c-11.228,0-17.107-6.351-21.841-11.471c-4.452-4.816-7.97-8.601-15.301-8.601c-7.323,0-10.834,3.784-15.263,8.601
				c-4.718,5.104-10.598,11.471-21.811,11.471c-11.222,0-17.086-6.366-21.805-11.486c-4.429-4.801-7.924-8.585-15.232-8.585
				c-7.338,0-10.849,3.813-15.3,8.601c-4.733,5.12-10.583,11.471-21.804,11.471c-11.214,0-17.094-6.366-21.826-11.471
				C10.841,52.968,7.338,49.184,0,49.184V40.28c11.22,0,17.093,6.366,21.826,11.455c4.452,4.817,7.946,8.616,15.285,8.616
				c7.316,0,10.826-3.799,15.269-8.601c4.727-5.104,10.607-11.471,21.834-11.471c11.198,0,17.063,6.336,21.766,11.455
				c4.444,4.817,7.955,8.616,15.271,8.616c7.323,0,10.833-3.799,15.262-8.616c4.719-5.089,10.599-11.455,21.812-11.455
				c11.229,0,17.108,6.336,21.841,11.455c4.452,4.817,7.963,8.616,15.301,8.616c7.34,0,10.849-3.799,15.301-8.616
				c4.726-5.119,10.605-11.455,21.842-11.455c11.229,0,17.108,6.336,21.841,11.455c4.453,4.817,7.963,8.616,15.302,8.616
				c7.346,0,10.879-3.799,15.33-8.616c4.733-5.119,10.621-11.455,21.872-11.455c11.235,0,17.132,6.336,21.856,11.455
				c4.452,4.802,7.985,8.616,15.34,8.616V69.255z"/>
		</g>
		<g>
			<path style="fill:#31535B;" d="M334.15,113.212c-11.252,0-17.14-6.352-21.872-11.456c-4.452-4.802-7.963-8.601-15.324-8.601
				c-7.354,0-10.879,3.799-15.323,8.615c-4.756,5.09-10.628,11.441-21.879,11.441c-11.245,0-17.109-6.352-21.842-11.456
				c-4.452-4.802-7.97-8.601-15.301-8.601c-7.34,0-10.856,3.799-15.308,8.601c-4.718,5.104-10.599,11.456-21.835,11.456
				c-11.228,0-17.107-6.352-21.841-11.456c-4.452-4.802-7.97-8.601-15.301-8.601c-7.323,0-10.834,3.799-15.263,8.601
				c-4.718,5.104-10.598,11.456-21.811,11.456c-11.222,0-17.086-6.382-21.805-11.456c-4.429-4.802-7.924-8.601-15.232-8.601
				c-7.338,0-10.849,3.799-15.3,8.615c-4.733,5.09-10.583,11.441-21.804,11.441c-11.214,0-17.094-6.352-21.826-11.456
				C10.849,96.954,7.338,93.155,0,93.155v-8.903c11.22,0,17.093,6.352,21.826,11.456c4.429,4.816,7.946,8.601,15.285,8.601
				c7.316,0,10.826-3.784,15.269-8.601c4.727-5.104,10.607-11.456,21.834-11.456c11.198,0,17.063,6.352,21.766,11.44
				c4.444,4.832,7.955,8.616,15.271,8.616c7.323,0,10.833-3.784,15.262-8.601c4.719-5.104,10.599-11.456,21.812-11.456
				c11.229,0,17.108,6.352,21.841,11.456c4.452,4.816,7.963,8.601,15.301,8.601c7.34,0,10.849-3.784,15.301-8.601
				c4.726-5.104,10.605-11.456,21.842-11.456c11.229,0,17.108,6.352,21.841,11.456c4.453,4.816,7.963,8.601,15.302,8.601
				c7.346,0,10.879-3.784,15.33-8.616c4.757-5.089,10.621-11.44,21.872-11.44c11.235,0,17.132,6.352,21.856,11.44
				c4.452,4.832,7.985,8.616,15.34,8.616V113.212z"/>
		</g>
	</g>
</g>
<g id="Layer_1">
</g>
</svg>
