<?xml version="1.0" encoding="iso-8859-1"?>
<!-- Generator: Adobe Illustrator 18.1.1, SVG Export Plug-In . SVG Version: 6.00 Build 0)  -->
<svg version="1.1" xmlns="http://www.w3.org/2000/svg" xmlns:xlink="http://www.w3.org/1999/xlink" x="0px" y="0px"
	 viewBox="0 0 414.797 212.646" style="enable-background:new 0 0 414.797 212.646;" xml:space="preserve">
<g id="broken_x5F_clouds">
	<path style="fill:#31535B;" d="M388.249,82.805c0.046-0.871,0.076-1.744,0.076-2.637c0-24.774-20.163-44.937-44.952-44.937
		c-7.673,0-15.043,1.922-21.591,5.527C316.646,17.336,295.374,0,270.038,0l-2.75,0.068c-22.343,1.117-40.492,15.457-47.314,34.955
		c-12.543-12.972-30.586-20.786-50.377-19.832c-31.559,1.565-56.599,24.561-60.891,54.129c-5.614-1.956-11.388-2.94-17.269-2.94
		c-30.129,0-54.653,24.508-54.653,54.634c0,0.563,0.023,1.121,0.076,1.702C21.606,126.898-0.045,135.79,0,166.881
		c0.015,24.728,21.948,44.846,48.895,44.846l2.591-0.057c16.751-0.858,86.204,0.049,86.227,0.049l0.023-1.14
		c0.121,0.019,0.243,0.038,0.364,0.053l0.061,1.075l-0.016-1.075c9.223,1.25,30.602,1.284,80.347,1.382
		c0,0,37.393,0.631,64.53,0.631c10.233,0,19.015-0.091,23.877-0.338c25.48-1.265,46.684-25.469,45.742-51.976
		c0-0.003,0-0.007,0-0.011c1.625,0.008,3.267,0.011,4.816,0.011c8.372,0,15.574-0.08,19.517-0.281
		c10.667-0.532,20.535-5.66,27.813-14.438c6.853-8.262,10.484-18.822,9.96-28.964C413.995,101.08,403.405,87.895,388.249,82.805z
		 M339.301,160.317c0.866,17.424-13.089,37.666-33.055,38.658c-17.602,0.862-87.473-0.323-87.632-0.312
		c-30.989-0.064-77.992-0.186-80.491-0.281l-0.175,3.035l-0.061-3.054c0,0-32.105-0.407-58.057-0.407
		c-12.466,0-23.52,0.095-29.013,0.373l-1.922,0.045c-19.585,0-35.524-14.127-35.539-31.509
		c-0.031-20.699,11.305-27.429,32.219-32.595l5.006-2.07l0.167-5.056l-0.258-2.515c-0.159-1.189-0.349-2.385-0.349-3.616
		c0-22.761,18.522-41.279,41.297-41.279c6.853,0,13.599,1.824,20.034,5.432l10.143,5.675l-0.198-11.612
		c-0.463-27.053,20.99-49.32,48.849-50.707l2.72-0.068c13.013,0,24.887,4.725,33.936,12.49c5.227,4.482,9.534,9.952,12.52,16.178
		c2.734,5.691,4.398,11.977,4.725,18.628c0.053,0.958-0.008,1.892-0.129,4.296l-0.645,17.196l12.087-12.273
		c7.832-7.974,18.278-12.368,29.393-12.368c22.776,0,41.29,18.51,41.29,41.275c0,2.834-0.304,5.572-0.836,8.243l-1.352,6.712
		l6.746,1.177c10.894,1.922,19.699,8.304,24.539,16.846c2.309,4.057,3.783,8.566,4.034,13.39
		C339.293,160.268,339.301,160.29,339.301,160.317z M394.516,137.081c-4.87,5.869-11.327,9.295-18.203,9.633
		c-4.968,0.254-15.179,0.296-26.286,0.251c-4.854-13.42-16.076-24.091-30.692-28.588c0.122-1.489,0.182-2.979,0.182-4.502
		c0-30.115-24.508-54.627-54.646-54.627c-10.127,0-19.828,2.747-28.268,7.893c-0.896-4.999-2.446-9.75-4.467-14.255
		c-0.471-1.056-1.125-2.006-1.656-3.027c1.041-19.62,16.926-35.43,37.468-36.451l2.089-0.053c21.143,0,38.487,15.999,39.512,36.394
		c0.046,0.756-0.007,1.504-0.091,3.339l-0.699,17.257l12.11-12.3c6.009-6.104,14.001-9.462,22.502-9.462
		c17.427,0,31.596,14.173,31.596,31.585c0,2.169-0.22,4.281-0.63,6.321l-1.353,6.705l6.739,1.185
		c12.224,2.146,21.135,11.57,21.69,22.932C401.764,124.163,399.242,131.369,394.516,137.081z"/>
</g>
<g id="Layer_1">
</g>
</svg>
