<?xml version="1.0" encoding="iso-8859-1"?>
<!-- Generator: Adobe Illustrator 18.1.1, SVG Export Plug-In . SVG Version: 6.00 Build 0)  -->
<svg version="1.1" xmlns="http://www.w3.org/2000/svg" xmlns:xlink="http://www.w3.org/1999/xlink" x="0px" y="0px"
	 viewBox="0 0 358.218 282.699" style="enable-background:new 0 0 358.218 282.699;" xml:space="preserve">
<g id="rain">
	<g>
		<g>
			<path style="fill:#31535B;" d="M324.23,105.03c0.136-1.63,0.22-3.244,0.22-4.855c0-30.449-24.789-55.235-55.246-55.235
				c-10.423,0-20.382,2.875-29.035,8.277c-5.371-31.44-34.18-54.973-67.911-53.115c-32.098,1.592-57.525,25.086-61.695,55.219
				c-5.813-2.063-11.782-3.111-17.869-3.111c-30.456,0-55.229,24.778-55.229,55.239c0,0.657,0.015,1.307,0.067,2.002
				C22.101,113.653-0.021,122.579,0,154.119c0.024,23.441,19.511,43.562,46.055,44.823l8.129-12.535
				c-0.965,0.023-2.066,0.041-2.818,0.087l-1.975,0.049c-20.132,0-36.519-14.552-36.526-32.436
				c-0.023-21.306,11.593-28.215,33.086-33.545l4.83-1.843l0.138-4.877l-0.243-2.617c-0.167-1.242-0.364-2.496-0.364-3.776
				c0-23.376,19.03-42.38,42.383-42.38c7.051,0,13.979,1.869,20.581,5.572l9.755,5.466l-0.197-11.187
				c-0.479-27.725,21.529-50.559,50.072-51.975l2.78-0.08c28.064,0,51.105,21.279,52.451,48.469c0.06,0.976,0,1.934-0.138,4.429
				l-0.577,16.52l11.608-11.791c8.029-8.182,18.764-12.695,30.175-12.695c23.377,0,42.4,19.016,42.4,42.377
				c0,2.902-0.313,5.72-0.867,8.467l-1.299,6.461l6.474,1.132c16.562,2.898,28.648,15.726,29.408,31.182
				c0.782,15.521-9.931,33.15-26.136,38.263l4.279,11.965c20.489-6.811,35.834-27.973,34.695-50.855
				C357.193,127.286,343.57,110.849,324.23,105.03z"/>
		</g>
		<g>
			<path style="fill:#31535B;" d="M114.906,248.941h0.023c-21.34-28.561-19.912-77.771-20.923-62.007
				c-2.674,41.13-18.886,62.007-18.886,62.007l0,0c-1.352,2.576-2.112,5.406-2.112,8.425c0,10.894,9.839,19.726,22.009,19.726
				c12.171,0,22.017-8.832,22.017-19.726C117.034,254.347,116.267,251.517,114.906,248.941z"/>
		</g>
		<g>
			<path style="fill:#31535B;" d="M182.635,210.192h0.023c-18.629-24.952-17.398-67.91-18.279-54.159
				c-2.34,35.926-16.47,54.159-16.47,54.159l0,0c-1.178,2.234-1.87,4.711-1.87,7.347c0,9.508,8.615,17.222,19.221,17.222
				c10.629,0,19.237-7.714,19.237-17.222C184.497,214.903,183.797,212.426,182.635,210.192z"/>
		</g>
		<g>
			<path style="fill:#31535B;" d="M235.093,260.208L235.093,260.208c-17.04-22.825-15.886-62.152-16.729-49.556
				c-2.111,32.861-15.072,49.556-15.072,49.556l0,0c-1.079,2.051-1.688,4.331-1.688,6.735c0,8.699,7.856,15.756,17.602,15.756
				c9.693,0,17.588-7.058,17.588-15.756C236.795,264.538,236.172,262.259,235.093,260.208z"/>
		</g>
		<g>
			<path style="fill:#31535B;" d="M256.243,193.168L256.243,193.168c-10.712-14.366-9.998-39.106-10.507-31.186
				c-1.36,20.687-9.489,31.186-9.489,31.186l0,0c-0.706,1.291-1.086,2.719-1.086,4.231c0,5.489,4.962,9.93,11.084,9.93
				c6.094,0,11.077-4.44,11.077-9.93C257.322,195.887,256.941,194.459,256.243,193.168z"/>
		</g>
	</g>
</g>
<g id="Layer_1">
</g>
</svg>
