<?xml version="1.0" encoding="iso-8859-1"?>
<!-- Generator: Adobe Illustrator 18.1.1, SVG Export Plug-In . SVG Version: 6.00 Build 0)  -->
<svg version="1.1" xmlns="http://www.w3.org/2000/svg" xmlns:xlink="http://www.w3.org/1999/xlink" x="0px" y="0px"
	 viewBox="0 0 311.937 302.059" style="enable-background:new 0 0 311.937 302.059;" xml:space="preserve">
<g id="sunny">
	<g>
		<path style="fill:#31535B;" d="M156.507,233.063c-42.21,0-76.541-34.335-76.541-76.544c0-42.209,34.331-76.544,76.541-76.544
			c42.217,0,76.548,34.335,76.548,76.544C233.055,198.728,198.724,233.063,156.507,233.063z M156.507,93.33
			c-34.84,0-63.185,28.341-63.185,63.189c0,34.848,28.345,63.189,63.185,63.189c34.855,0,63.193-28.341,63.193-63.189
			C219.699,121.671,191.362,93.33,156.507,93.33z"/>
		<g>
			<path style="fill:#31535B;" d="M96.915,89.817c1.929,2.218,1.717,5.572-0.486,7.506l0,0c-2.234,1.945-5.592,1.709-7.506-0.494
				l-39.58-45.214c-1.93-2.225-1.702-5.579,0.494-7.494l0,0c2.21-1.933,5.583-1.732,7.513,0.494L96.915,89.817z"/>
		</g>
		<g>
			<path style="fill:#31535B;" d="M162.037,65.369c0.031,2.929-2.34,5.326-5.271,5.348l0,0c-2.94,0.019-5.334-2.329-5.356-5.287
				l-0.425-60.07c-0.023-2.956,2.347-5.337,5.265-5.36l0,0c2.948-0.011,5.333,2.329,5.364,5.292L162.037,65.369z"/>
		</g>
		<g>
			<path style="fill:#31535B;" d="M65.631,141.914c2.94,0.243,5.09,2.814,4.87,5.728l0,0c-0.243,2.929-2.789,5.105-5.736,4.877
				l-59.88-4.877c-2.933-0.247-5.128-2.818-4.863-5.728l0,0c0.228-2.933,2.781-5.102,5.736-4.896L65.631,141.914z"/>
		</g>
		<g>
			<path style="fill:#31535B;" d="M75.279,198.827c2.492-1.576,5.774-0.828,7.339,1.649l0,0c1.565,2.469,0.836,5.766-1.656,7.343
				l-50.787,32.097c-2.5,1.581-5.781,0.84-7.331-1.645l0,0c-1.58-2.488-0.836-5.767,1.656-7.338L75.279,198.827z"/>
		</g>
		<g>
			<path style="fill:#31535B;" d="M120.648,238.419c1.049-2.761,4.11-4.14,6.853-3.107l0,0c2.735,1.037,4.133,4.091,3.115,6.864
				l-21.173,56.222c-1.056,2.751-4.11,4.137-6.83,3.096l0,0c-2.788-1.037-4.163-4.095-3.13-6.853L120.648,238.419z"/>
		</g>
		<g>
			<path style="fill:#31535B;" d="M235.395,210.082c-2.614-1.371-3.609-4.574-2.233-7.172l0,0c1.352-2.598,4.573-3.608,7.179-2.225
				l53.172,27.95c2.613,1.386,3.608,4.604,2.226,7.168l0,0c-1.36,2.624-4.566,3.604-7.194,2.249L235.395,210.082z"/>
		</g>
		<g>
			<path style="fill:#31535B;" d="M247.565,145.249c-2.917,0.342-5.561-1.748-5.895-4.646l0,0c-0.35-2.917,1.731-5.576,4.664-5.914
				l59.668-6.979c2.933-0.334,5.576,1.751,5.895,4.653l0,0c0.358,2.94-1.732,5.565-4.664,5.926L247.565,145.249z"/>
		</g>
		<g>
			<path style="fill:#31535B;" d="M208.41,294.964c0.987,2.765-0.456,5.808-3.236,6.799l0,0c-2.78,0.954-5.804-0.479-6.776-3.251
				l-19.98-56.678c-0.973-2.758,0.486-5.808,3.244-6.773l0,0c2.773-0.984,5.812,0.46,6.785,3.244L208.41,294.964z"/>
		</g>
		<g>
			<path style="fill:#31535B;" d="M218.24,91.294c-1.823,2.325-5.135,2.739-7.468,0.938l0,0c-2.317-1.811-2.72-5.143-0.919-7.456
				l36.998-47.368c1.808-2.313,5.15-2.738,7.46-0.923l0,0c2.31,1.801,2.72,5.151,0.904,7.479L218.24,91.294z"/>
		</g>
	</g>
</g>
<g id="Layer_1">
</g>
</svg>
