<?xml version="1.0" encoding="iso-8859-1"?>
<!-- Generator: Adobe Illustrator 18.1.1, SVG Export Plug-In . SVG Version: 6.00 Build 0)  -->
<svg version="1.1" xmlns="http://www.w3.org/2000/svg" xmlns:xlink="http://www.w3.org/1999/xlink" x="0px" y="0px"
	 viewBox="0 0 353.138 197.534" style="enable-background:new 0 0 353.138 197.534;" xml:space="preserve">
<g id="Layer_3">
	<path style="fill:#31535B;" d="M352.641,145.21c0.161,0.001,0.32,0.001,0.48,0.001c0.021-0.806,0.023-1.61-0.001-2.409
		c-0.491-2.246-0.9-4.527-1.283-6.813c-0.245-0.589-0.522-1.166-0.86-1.721c-0.503-0.827-0.733-1.642-0.755-2.413
		c-0.065,0-0.129,0-0.195-0.001c-4.854-13.42-16.076-24.091-30.692-28.588c0.122-1.489,0.182-2.979,0.182-4.501
		c0-30.115-24.508-54.627-54.646-54.627c-10.127,0-19.828,2.747-28.268,7.893c-0.896-4.998-2.446-9.75-4.467-14.255
		c-0.471-1.056-1.125-2.006-1.656-3.027c0.002-0.029,0.004-0.057,0.007-0.085c-0.172-0.308-0.321-0.624-0.429-0.957
		c-0.017-0.03-0.037-0.059-0.054-0.089c-0.04-0.062-0.095-0.118-0.131-0.182c-0.134-0.239-0.249-0.503-0.357-0.77
		c-0.063-0.103-0.135-0.199-0.185-0.313c-0.135-0.232-0.243-0.472-0.338-0.715c-1.448-2.156-2.585-4.501-4.21-6.551
		c-0.515-0.65-1.087-1.295-1.665-1.948c-0.411-0.336-0.775-0.728-1.052-1.138c-0.191-0.156-0.375-0.319-0.542-0.501
		c-0.234-0.256-0.442-0.534-0.655-0.808c-0.333-0.249-0.618-0.543-0.864-0.866c-0.011,0.029-0.023,0.058-0.033,0.087
		C207.431,6.939,189.388-0.875,169.597,0.078c-31.559,1.565-56.599,24.562-60.891,54.129c-5.614-1.956-11.388-2.94-17.269-2.94
		c-30.129,0-54.653,24.508-54.653,54.634c0,0.563,0.023,1.121,0.076,1.702C21.606,111.786-0.045,120.678,0,151.77
		c0.015,24.728,21.948,44.846,48.895,44.846l2.591-0.057c16.751-0.858,86.204,0.049,86.227,0.049l0.023-1.14
		c0.121,0.019,0.243,0.038,0.364,0.053l0.061,1.075l-0.016-1.075c9.223,1.25,30.602,1.284,80.347,1.382
		c0,0,37.393,0.631,64.53,0.631c10.233,0,19.015-0.091,23.877-0.338c25.48-1.265,46.684-25.469,45.742-51.976V145.21z
		 M306.246,183.864c-17.602,0.862-87.473-0.323-87.632-0.312c-30.989-0.064-77.992-0.186-80.491-0.281l-0.175,3.035l-0.061-3.054
		c0,0-32.105-0.407-58.057-0.407c-12.466,0-23.52,0.095-29.013,0.373l-1.922,0.045c-19.585,0-35.524-14.127-35.539-31.509
		c-0.031-20.699,11.305-27.429,32.219-32.595l5.006-2.07l0.167-5.056l-0.258-2.515c-0.159-1.189-0.349-2.385-0.349-3.616
		c0-22.761,18.522-41.279,41.297-41.279c6.853,0,13.599,1.824,20.034,5.432l10.143,5.675l-0.198-11.612
		c-0.463-27.053,20.99-49.32,48.849-50.707l2.72-0.068c13.013,0,24.887,4.726,33.936,12.49c5.227,4.482,9.534,9.952,12.52,16.178
		c2.734,5.691,4.398,11.977,4.725,18.628c0.053,0.958-0.008,1.892-0.129,4.296l-0.646,17.196l12.087-12.273
		c7.832-7.974,18.278-12.368,29.393-12.368c22.776,0,41.291,18.51,41.291,41.275c0,2.834-0.304,5.572-0.836,8.243l-1.353,6.712
		l6.747,1.177c10.894,1.922,19.699,8.304,24.539,16.846c2.309,4.057,3.783,8.566,4.034,13.39c0,0.023,0.008,0.045,0.008,0.072
		C340.167,162.63,326.212,182.872,306.246,183.864z"/>
</g>
<g id="Layer_1">
</g>
</svg>
