<?xml version="1.0" encoding="iso-8859-1"?>
<!-- Generator: Adobe Illustrator 18.1.1, SVG Export Plug-In . SVG Version: 6.00 Build 0)  -->
<svg version="1.1" xmlns="http://www.w3.org/2000/svg" xmlns:xlink="http://www.w3.org/1999/xlink" x="0px" y="0px"
	 viewBox="0 0 428.141 367.168" style="enable-background:new 0 0 428.141 367.168;" xml:space="preserve">
<g id="rain">
	<g>
		<path style="fill:#31535B;" d="M235.1,344.668c-17.063-22.814-15.924-62.151-16.745-49.556
			c-2.127,32.88-15.072,49.556-15.072,49.556c-1.079,2.067-1.702,4.339-1.702,6.739c0,8.694,7.886,15.761,17.595,15.761
			c9.724,0,17.61-7.066,17.61-15.761c0-2.4-0.624-4.672-1.717-6.739H235.1z"/>
		<path style="fill:#31535B;" d="M324.456,53.347c-28.155,0-51.052,22.913-51.052,51.068c0,9.599,2.704,18.552,7.324,26.229
			c-3.723-0.794-7.582-1.231-11.532-1.231c-10.423,0-20.391,2.876-29.037,8.266c-5.363-31.433-34.171-54.972-67.918-53.111
			c-32.09,1.603-57.525,25.083-61.688,55.223c-5.804-2.063-11.791-3.111-17.868-3.111c-30.465,0-55.246,24.77-55.246,55.238
			c0,0.654,0.03,1.299,0.091,2.006C22.092,198.128-0.046,207.04,0,238.59c0.015,23.444,19.494,43.561,46.038,44.823l8.129-12.55
			c-0.958,0.03-2.067,0.061-2.811,0.106l-1.975,0.046c-20.132,0-36.527-14.556-36.542-32.432
			c-0.03-21.31,11.608-28.227,33.093-33.557l4.832-1.842l0.137-4.87l-0.243-2.621c-0.167-1.242-0.364-2.495-0.364-3.776
			c0-23.384,19.022-42.384,42.392-42.384c7.065,0,13.978,1.88,20.573,5.569l9.754,5.47l-0.182-11.175
			c-0.486-27.733,21.515-50.566,50.05-51.987l2.78-0.068c28.079,0,51.128,21.268,52.465,48.465c0.061,0.969-0.015,1.937-0.136,4.421
			l-0.578,16.516l11.593-11.791c8.053-8.178,18.765-12.687,30.191-12.687c23.368,0,42.391,19.008,42.391,42.369
			c0,2.917-0.304,5.725-0.866,8.475l-1.307,6.458l6.503,1.143c16.546,2.895,28.626,15.723,29.386,31.179
			c0.79,15.513-9.922,33.153-26.134,38.258l4.285,11.958c20.467-6.799,35.828-27.957,34.688-50.851
			c-0.972-19.497-14.586-35.934-33.929-41.765c0.152-1.614,0.228-3.24,0.228-4.854c0-11.057-3.305-21.344-8.927-29.989
			c2.91,0.517,5.888,0.835,8.942,0.835c28.155,0,51.067-22.909,51.067-51.067C375.523,76.26,352.611,53.347,324.456,53.347z
			 M324.456,146.582c-23.247,0-42.148-18.913-42.148-42.167c0-23.243,18.901-42.164,42.148-42.164s42.164,18.921,42.164,42.164
			C366.62,127.669,347.703,146.582,324.456,146.582z"/>
		<path style="fill:#31535B;" d="M279.375,64.59c1.261,1.467,3.51,1.622,4.998,0.342c1.459-1.303,1.611-3.533,0.319-5.011
			l-26.392-30.171c-1.292-1.478-3.54-1.603-4.999-0.323c-1.474,1.284-1.626,3.521-0.35,4.999L279.375,64.59z"/>
		<path style="fill:#31535B;" d="M324.638,47.174c1.945-0.007,3.525-1.603,3.495-3.559L327.86,3.533
			c-0.015-1.987-1.611-3.54-3.571-3.533c-1.96,0.019-3.54,1.603-3.51,3.571l0.273,40.083
			C321.068,45.621,322.664,47.186,324.638,47.174z"/>
		<path style="fill:#31535B;" d="M223.308,98.497l39.931,3.259c1.975,0.145,3.677-1.303,3.829-3.259
			c0.152-1.938-1.292-3.658-3.252-3.825l-39.945-3.255c-1.96-0.141-3.662,1.299-3.813,3.255
			C219.89,96.62,221.334,98.329,223.308,98.497z"/>
		<path style="fill:#31535B;" d="M415.864,152.531l-35.478-18.647c-1.732-0.92-3.89-0.247-4.802,1.478
			c-0.912,1.74-0.243,3.882,1.504,4.801l35.463,18.658c1.731,0.9,3.874,0.255,4.801-1.519
			C418.265,155.6,417.596,153.458,415.864,152.531z"/>
		<path style="fill:#31535B;" d="M424.176,85.202l-39.794,4.657c-1.945,0.235-3.358,1.994-3.115,3.943
			c0.228,1.937,1.976,3.327,3.92,3.111l39.824-4.668c1.945-0.225,3.358-1.976,3.1-3.943
			C427.898,86.368,426.15,84.966,424.176,85.202z"/>
		<path style="fill:#31535B;" d="M341.246,156.823c-1.854,0.639-2.841,2.67-2.173,4.52l13.326,37.803
			c0.638,1.85,2.659,2.807,4.528,2.173c1.854-0.669,2.811-2.694,2.158-4.532l-13.326-37.81
			C345.105,157.127,343.084,156.158,341.246,156.823z"/>
		<path style="fill:#31535B;" d="M365.647,60.902l24.66-31.574c1.201-1.542,0.927-3.783-0.593-4.976
			c-1.565-1.223-3.783-0.942-4.999,0.616l-24.66,31.588c-1.215,1.535-0.942,3.757,0.592,4.969
			C362.213,62.73,364.432,62.456,365.647,60.902z"/>
		<path style="fill:#31535B;" d="M114.914,333.418c-21.333-28.565-19.904-77.779-20.922-62.015
			c-2.674,41.138-18.886,62.015-18.886,62.015c-1.337,2.568-2.127,5.394-2.127,8.417c0,10.886,9.861,19.726,22.032,19.726
			c12.17,0,22.016-8.84,22.016-19.726c0-3.024-0.775-5.85-2.142-8.417H114.914z"/>
		<path style="fill:#31535B;" d="M182.634,294.657c-18.613-24.949-17.367-67.903-18.263-54.152
			c-2.34,35.919-16.486,54.152-16.486,54.152c-1.185,2.234-1.854,4.718-1.854,7.354c0,9.512,8.601,17.223,19.236,17.223
			c10.605,0,19.221-7.711,19.221-17.223c0-2.636-0.699-5.12-1.869-7.354H182.634z"/>
		<path style="fill:#31535B;" d="M245.72,246.446c-1.353,20.695-9.497,31.193-9.497,31.193c-0.684,1.292-1.079,2.72-1.079,4.232
			c0,5.477,4.954,9.922,11.092,9.922c6.108,0,11.061-4.445,11.061-9.922c0-1.512-0.38-2.94-1.064-4.232
			C245.507,263.273,246.237,238.522,245.72,246.446z"/>
	</g>
</g>
<g id="Layer_1">
</g>
</svg>
