<?xml version="1.0" encoding="iso-8859-1"?>
<!-- Generator: Adobe Illustrator 18.1.1, SVG Export Plug-In . SVG Version: 6.00 Build 0)  -->
<svg version="1.1" xmlns="http://www.w3.org/2000/svg" xmlns:xlink="http://www.w3.org/1999/xlink" x="0px" y="0px"
	 viewBox="0 0 450.462 286.934" style="enable-background:new 0 0 450.462 286.934;" xml:space="preserve">
<g id="few_clouds">
	<g>
		<path style="fill:#31535B;" d="M274.315,76.484c1.519,1.728,4.178,1.918,5.933,0.384c1.725-1.523,1.907-4.182,0.372-5.926
			l-31.239-35.702c-1.543-1.755-4.193-1.915-5.941-0.403c-1.732,1.523-1.915,4.174-0.388,5.929L274.315,76.484z"/>
		<path style="fill:#31535B;" d="M327.905,55.85c2.31-0.02,4.179-1.899,4.163-4.224l-0.342-47.455
			c-0.008-2.336-1.915-4.19-4.231-4.171c-2.294,0.019-4.178,1.892-4.163,4.235l0.342,47.444
			C323.681,53.996,325.581,55.865,327.905,55.85z"/>
		<path style="fill:#31535B;" d="M435.905,180.598l-41.997-22.088c-2.059-1.083-4.596-0.292-5.683,1.758
			c-1.079,2.044-0.281,4.581,1.778,5.66l41.981,22.107c2.067,1.064,4.62,0.289,5.683-1.789
			C438.762,184.222,437.987,181.673,435.905,180.598z"/>
		<path style="fill:#31535B;" d="M445.766,100.859l-47.117,5.512c-2.309,0.282-3.95,2.371-3.677,4.672
			c0.25,2.306,2.34,3.947,4.649,3.673l47.132-5.5c2.309-0.277,3.958-2.34,3.677-4.668
			C450.173,102.264,448.091,100.601,445.766,100.859z"/>
		<path style="fill:#31535B;" d="M352.93,188.218c-0.775-2.181-3.176-3.347-5.364-2.553c-2.188,0.756-3.328,3.153-2.568,5.345
			l15.787,44.77c0.775,2.192,3.168,3.324,5.349,2.561c2.203-0.771,3.343-3.183,2.553-5.363L352.93,188.218z"/>
		<path style="fill:#31535B;" d="M376.443,72.111l29.226-37.404c1.429-1.827,1.094-4.467-0.722-5.895
			c-1.831-1.425-4.475-1.098-5.903,0.737l-29.219,37.412c-1.428,1.819-1.102,4.459,0.729,5.887
			C372.386,74.265,375.022,73.927,376.443,72.111z"/>
		<path style="fill:#31535B;" d="M327.692,61.693c-34.111,0-61.855,27.756-61.855,61.863c0,3.612,0.372,7.133,0.972,10.575
			c4.961,0.262,9.747,1.158,14.267,2.663c-1.2-4.216-1.884-8.645-1.884-13.238c0-26.746,21.758-48.504,48.499-48.504
			c26.75,0,48.515,21.758,48.515,48.504c0,26.742-21.766,48.503-48.515,48.503c-4.308,0-8.47-0.619-12.452-1.679
			c1.596,4.505,2.598,9.268,2.948,14.226c3.108,0.482,6.268,0.809,9.504,0.809c34.111,0,61.871-27.756,61.871-61.859
			C389.563,89.448,361.803,61.693,327.692,61.693z"/>
		<path style="fill:#31535B;" d="M318.211,192.977c0.122-1.474,0.175-2.967,0.175-4.471c0-1.291-0.107-2.56-0.198-3.832
			c-0.35-4.958-1.352-9.721-2.948-14.226c-5.584-15.809-18.233-28.28-34.164-33.586c-4.52-1.504-9.306-2.4-14.267-2.663
			c-0.965-0.049-1.907-0.144-2.879-0.144c-10.089,0-19.745,2.727-28.162,7.844c-1.573-8.718-5.052-16.767-9.899-23.833l29.355,2.394
			c2.333,0.197,4.346-1.542,4.535-3.855c0.19-2.283-1.527-4.327-3.844-4.509l-37.583-3.077
			c-12.505-12.467-30.183-19.904-49.343-18.864c-31.437,1.569-56.386,24.47-60.686,53.928c-5.577-1.945-11.32-2.918-17.169-2.918
			c-30.039,0-54.463,24.432-54.463,54.464c0,0.558,0.015,1.101,0.061,1.679C21.53,201.467-0.03,210.348,0,241.314
			c0.03,24.648,21.895,44.705,48.743,44.705l2.583-0.057c16.706-0.828,85.908,0.057,85.908,0.045l0.016-1.143
			c0.122,0.015,0.243,0.034,0.365,0.049l0.045,1.09l-0.015-1.079c9.2,1.242,30.51,1.284,80.066,1.383c0,0,37.309,0.626,64.339,0.626
			c0.015,0,0.03,0,0.045,0c10.15,0,18.871-0.087,23.695-0.334c12.832-0.63,24.744-6.833,33.534-17.446
			c8.288-9.99,12.68-22.761,12.072-35.031C350.438,214.971,337.121,198.808,318.211,192.977z M329.045,260.633
			c-6.381,7.692-14.875,12.178-23.916,12.634c-4.695,0.235-13.174,0.311-23.035,0.311c-0.015,0-0.03,0-0.045,0
			c-26.939,0-64.096-0.627-64.21-0.627c-30.897-0.061-77.764-0.182-80.21-0.277l-0.167,3.02l-0.053-3.039
			c0,0-31.999-0.407-57.852-0.407c-12.421,0-23.437,0.095-28.899,0.372l-1.915,0.046c-19.486,0-35.372-14.07-35.387-31.373
			c-0.015-20.592,11.258-27.289,32.09-32.436l4.718-2.002l0.433-4.737l-0.227-2.914c-0.159-1.181-0.342-2.355-0.342-3.578
			c0-22.67,18.438-41.108,41.108-41.108c6.837,0,13.553,1.819,19.942,5.409l10.143,5.683l-0.198-11.62
			c-0.455-26.936,20.907-49.123,48.637-50.498l2.704-0.068c12.338,0,23.65,4.258,32.493,11.335c0.433,0.63,1.01,1.135,1.732,1.455
			c9.724,8.52,16.075,20.615,16.751,34.278c0.054,0.95,0,1.876-0.121,4.292l-0.646,17.219l12.072-12.288
			c7.81-7.939,18.203-12.312,29.287-12.312c2.394,0,4.703,0.312,6.99,0.707c16.82,2.91,30.16,15.995,33.343,32.728
			c0.471,2.492,0.775,5.041,0.775,7.665c0,2.808-0.304,5.546-0.843,8.197l-1.36,6.72l6.753,1.185
			c16.023,2.818,27.722,15.232,28.466,30.175C338.511,243.756,335.213,253.181,329.045,260.633z"/>
	</g>
</g>
<g id="Layer_1">
</g>
</svg>
